# xmcd
#
# Track frame offsets:
#	150
#	15292
#	30807
#	48798
#	64718
#	82997
#	101853
#
# Disc length: 1547 seconds
#
# Revision: 1
# Processed by: cddbd v1.5.2PL0 Copyright (c) Steve Scherf et al.
# Submitted via: audiograbber 1.83.01
#
DISCID=40060907
DTITLE=Blue Saloon - CD-NH Blue Saloon - How We Get By
DYEAR=2017
DGENRE=Country
TTITLE0=The Art of Letting Go
TTITLE1=I've Seen The World
TTITLE2=Flight Mode
TTITLE3=Red Traffic Lights
TTITLE4=Wasted
TTITLE5=A Thousand Miles
TTITLE6=In Due Form
EXTD=Moritz and Alexander
EXTT0=
EXTT1=
EXTT2=
EXTT3=
EXTT4=
EXTT5=
EXTT6=
PLAYORDER=
